# xmcd
#
# Track frame offsets:
#	150
#	25057
#	47502
#	68825
#	100025
#	129007
#	143287
#	169547
#	209662
#	227202
#	248040
#	268315
#	299437
#	305360
#
# Disc length: 4249
#
# Revision: 1
# Processed by: cddbd v1.5.1PL0 Copyright (c) Steve Scherf et al.
# Submitted via: CDex 1.50Beta7
# Normalized: r0:TDELIM( - )
#
DISCID=bd10970e
DTITLE=Budapest Saxophone Quartet - Around The World In 80 Minutes
DYEAR=2002
DGENRE=Jazz
TTITLE0=L. WEINER - THREE HUNGARIAN FOLK DANCES
TTITLE1=B. BARTÓK - ROMANIAN FOLK DANCES
TTITLE2=N. ROTA - OTTO E MEZZO
TTITLE3=P. ITURRALDE - SUITE HELLENIQUE
TTITLE4=M. CURTIS - A KLEZMER WEDDING
TTITLE5=J. MATITIA - CHINESE RAG
TTITLE6=GLENN MILLER - MOONLIGHT SERENADE
TTITLE7=L. FLORENZO - SUD-AMERICA
TTITLE8=A. PIAZZOLLA - LIBERTANGO
TTITLE9=I. ALBENIZ - SEVILLA
TTITLE10=CL. DEBUSSY - CLAIR DE LUNE
TTITLE11=E. GRIEG - LYRIC PIECES
TTITLE12=N. RIMSKIJ-KORSAKOV - THE FLIGHT OF THE BUMBLE-BEE
TTITLE13=J. STRAUSS - 'ÉLJEN A MAGYAR!' - POLKA
EXTD=YEAR: 2002
EXTT0=
EXTT1=
EXTT2=
EXTT3=
EXTT4=
EXTT5=
EXTT6=
EXTT7=
EXTT8=
EXTT9=
EXTT10=
EXTT11=
EXTT12=
EXTT13=
PLAYORDER=
